<svg width="513" height="130" viewBox="0 0 513 130" fill="none" xmlns="http://www.w3.org/2000/svg">
<g filter="url(#filter0_di)">
<path d="M18.46 34H46C52.72 34 58.69 35.32 63.91 37.96C69.13 40.54 73.18 44.23 76.06 49.03C78.94 53.77 80.38 59.26 80.38 65.5C80.38 71.74 78.94 77.26 76.06 82.06C73.18 86.8 69.13 90.49 63.91 93.13C58.69 95.71 52.72 97 46 97H18.46V34ZM45.46 87.1C50.08 87.1 54.13 86.23 57.61 84.49C61.15 82.69 63.85 80.17 65.71 76.93C67.63 73.63 68.59 69.82 68.59 65.5C68.59 61.18 67.63 57.4 65.71 54.16C63.85 50.86 61.15 48.34 57.61 46.6C54.13 44.8 50.08 43.9 45.46 43.9H30.16V87.1H45.46ZM92.8155 34H104.515V97H92.8155V34ZM164.576 64.78H175.646V89.89C172.406 92.47 168.626 94.45 164.306 95.83C159.986 97.21 155.546 97.9 150.986 97.9C144.566 97.9 138.776 96.52 133.616 93.76C128.456 90.94 124.406 87.07 121.466 82.15C118.526 77.23 117.056 71.68 117.056 65.5C117.056 59.32 118.526 53.77 121.466 48.85C124.406 43.93 128.456 40.09 133.616 37.33C138.836 34.51 144.686 33.1 151.166 33.1C156.446 33.1 161.246 33.97 165.566 35.71C169.886 37.45 173.516 40 176.456 43.36L169.076 50.56C164.276 45.76 158.486 43.36 151.706 43.36C147.266 43.36 143.306 44.29 139.826 46.15C136.406 48.01 133.706 50.62 131.726 53.98C129.806 57.34 128.846 61.18 128.846 65.5C128.846 69.7 129.806 73.48 131.726 76.84C133.706 80.2 136.406 82.84 139.826 84.76C143.306 86.68 147.236 87.64 151.616 87.64C156.536 87.64 160.856 86.56 164.576 84.4V64.78ZM191.077 34H202.777V97H191.077V34ZM248.977 97.9C242.617 97.9 236.857 96.52 231.697 93.76C226.597 90.94 222.577 87.07 219.637 82.15C216.757 77.23 215.317 71.68 215.317 65.5C215.317 59.32 216.787 53.77 219.727 48.85C222.667 43.93 226.687 40.09 231.787 37.33C236.947 34.51 242.707 33.1 249.067 33.1C254.227 33.1 258.937 34 263.197 35.8C267.457 37.6 271.057 40.21 273.997 43.63L266.437 50.74C261.877 45.82 256.267 43.36 249.607 43.36C245.287 43.36 241.417 44.32 237.997 46.24C234.577 48.1 231.907 50.71 229.987 54.07C228.067 57.43 227.107 61.24 227.107 65.5C227.107 69.76 228.067 73.57 229.987 76.93C231.907 80.29 234.577 82.93 237.997 84.85C241.417 86.71 245.287 87.64 249.607 87.64C256.267 87.64 261.877 85.15 266.437 80.17L273.997 87.37C271.057 90.79 267.427 93.4 263.107 95.2C258.847 97 254.137 97.9 248.977 97.9ZM313.32 97.9C306.9 97.9 301.11 96.52 295.95 93.76C290.79 90.94 286.74 87.07 283.8 82.15C280.86 77.17 279.39 71.62 279.39 65.5C279.39 59.38 280.86 53.86 283.8 48.94C286.74 43.96 290.79 40.09 295.95 37.33C301.11 34.51 306.9 33.1 313.32 33.1C319.74 33.1 325.53 34.51 330.69 37.33C335.85 40.09 339.9 43.93 342.84 48.85C345.78 53.77 347.25 59.32 347.25 65.5C347.25 71.68 345.78 77.23 342.84 82.15C339.9 87.07 335.85 90.94 330.69 93.76C325.53 96.52 319.74 97.9 313.32 97.9ZM313.32 87.64C317.52 87.64 321.3 86.71 324.66 84.85C328.02 82.93 330.66 80.29 332.58 76.93C334.5 73.51 335.46 69.7 335.46 65.5C335.46 61.3 334.5 57.52 332.58 54.16C330.66 50.74 328.02 48.1 324.66 46.24C321.3 44.32 317.52 43.36 313.32 43.36C309.12 43.36 305.34 44.32 301.98 46.24C298.62 48.1 295.98 50.74 294.06 54.16C292.14 57.52 291.18 61.3 291.18 65.5C291.18 69.7 292.14 73.51 294.06 76.93C295.98 80.29 298.62 82.93 301.98 84.85C305.34 86.71 309.12 87.64 313.32 87.64ZM417.521 97L417.431 55.24L396.731 89.8H391.511L370.811 55.78V97H359.651V34H369.281L394.301 75.76L418.871 34H428.501L428.591 97H417.521ZM471.528 34C476.988 34 481.728 34.9 485.748 36.7C489.828 38.5 492.948 41.08 495.108 44.44C497.268 47.8 498.348 51.79 498.348 56.41C498.348 60.97 497.268 64.96 495.108 68.38C492.948 71.74 489.828 74.32 485.748 76.12C481.728 77.92 476.988 78.82 471.528 78.82H457.308V97H445.608V34H471.528ZM470.988 68.92C476.088 68.92 479.958 67.84 482.598 65.68C485.238 63.52 486.558 60.43 486.558 56.41C486.558 52.39 485.238 49.3 482.598 47.14C479.958 44.98 476.088 43.9 470.988 43.9H457.308V68.92H470.988Z" fill="#742EE9"/>
</g>
<defs>
<filter id="filter0_di" x="11.46" y="26.1" width="499.888" height="84.8" filterUnits="userSpaceOnUse" color-interpolation-filters="sRGB">
<feFlood flood-opacity="0" result="BackgroundImageFix"/>
<feColorMatrix in="SourceAlpha" type="matrix" values="0 0 0 0 0 0 0 0 0 0 0 0 0 0 0 0 0 0 127 0"/>
<feOffset dx="3" dy="3"/>
<feGaussianBlur stdDeviation="5"/>
<feColorMatrix type="matrix" values="0 0 0 0 0.44056 0 0 0 0 0.118316 0 0 0 0 0.979167 0 0 0 1 0"/>
<feBlend mode="normal" in2="BackgroundImageFix" result="effect1_dropShadow"/>
<feBlend mode="normal" in="SourceGraphic" in2="effect1_dropShadow" result="shape"/>
<feColorMatrix in="SourceAlpha" type="matrix" values="0 0 0 0 0 0 0 0 0 0 0 0 0 0 0 0 0 0 127 0" result="hardAlpha"/>
<feOffset dx="-3" dy="-3"/>
<feGaussianBlur stdDeviation="5"/>
<feComposite in2="hardAlpha" operator="arithmetic" k2="-1" k3="1"/>
<feColorMatrix type="matrix" values="0 0 0 0 0.17552 0 0 0 0 0.114722 0 0 0 0 0.491667 0 0 0 1 0"/>
<feBlend mode="normal" in2="shape" result="effect2_innerShadow"/>
</filter>
</defs>
</svg>
